<svg id="icon" xmlns="http://www.w3.org/2000/svg" viewBox="-25 -26.75 50 50"><path d="m 20,5 c -2.215061,0 -4,1.7849387 -4,4 0,2.215061 1.784939,4 4,4 2.215061,0 4,-1.784939 4,-4 0,-2.2150613 -1.784939,-4 -4,-4 z m -40,0 c -2.215061,0 -4,1.7849387 -4,4 0,2.215061 1.784939,4 4,4 2.215061,0 4,-1.784939 4,-4 0,-2.2150613 -1.784939,-4 -4,-4 z M 0,-26 c -2.2150613,0 -4,1.784939 -4,4 0,2.215061 1.7849387,4 4,4 2.2150613,0 4,-1.784939 4,-4 0,-2.215061 -1.7849387,-4 -4,-4 z m 0,20 c -3.3196308,0 -6,2.6803692 -6,6 0,3.3196308 2.6803692,6 6,6 C 3.3196308,6 6,3.3196308 6,0 6,-3.3196308 3.3196308,-6 0,-6 Z M -5,-21.941406 C -15.016622,-19.666091 -22.5,-10.702303 -22.5,0 c 0,1.5215429 0.151155,3.0082575 0.439453,4.4453125 0.303447,-0.1379177 0.623158,-0.246965 0.955078,-0.3222656 C -21.364332,2.7886652 -21.5,1.4104072 -21.5,0 c 0,-10.198695 7.090329,-18.732318 16.6132813,-20.943359 C -4.956536,-21.266022 -4.9960716,-21.599168 -5,-21.941406 Z m 10,0 c -0.00393,0.342238 -0.043464,0.675384 -0.1132813,0.998047 C 14.409671,-18.732318 21.5,-10.198695 21.5,0 c 0,1.4104072 -0.135668,2.7886652 -0.394531,4.1230469 0.331919,0.075301 0.651632,0.1843481 0.955078,0.3222656 C 22.348845,3.0082574 22.5,1.521543 22.5,0 22.5,-10.702303 15.016622,-19.666091 5,-21.941406 Z m -22.083984,35 c -0.270321,0.194772 -0.562364,0.363552 -0.869141,0.501953 C -13.844268,18.99004 -7.3292479,22.5 0,22.5 7.3292479,22.5 13.844268,18.99004 17.953125,13.560547 17.646348,13.422146 17.354305,13.253366 17.083984,13.058594 13.155961,18.191093 6.9669574,21.5 0,21.5 c -6.9669574,0 -13.155961,-3.308907 -17.083984,-8.441406 z M 18.826172,-9.8632813 c -0.255464,0.00159 -0.533918,0.022037 -0.837891,0.054687 -1.215891,0.1306001 -2.835986,0.4960661 -4.78125,1.0625 -2.533579,0.7377433 -5.6122163,1.8166747 -8.988281,3.1640626 0.2983595,0.2260913 0.5794973,0.4760734 0.8378906,0.7460937 3.1711157,-1.2513933 6.0561644,-2.2555596 8.4316404,-2.9472656 1.912574,-0.5569153 3.499271,-0.9120128 4.609375,-1.03125 0.277527,-0.029809 0.523875,-0.043491 0.736328,-0.044922 0.212454,-0.00143 0.390497,0.010196 0.525391,0.033203 0.133381,0.022749 0.206862,0.052844 0.246094,0.072266 -0.164313,-0.367593 -0.306238,-0.7472047 -0.490235,-1.1035156 -0.09289,-0.00491 -0.189538,-0.00648 -0.289062,-0.00586 z m 1.697265,0.6503907 c 0.02711,0.06026 0.04958,0.123054 0.07617,0.1835937 -0.01193,-0.04108 -0.0267,-0.082129 -0.04492,-0.1230469 -0.0095,-0.021321 -0.02056,-0.040487 -0.03125,-0.060547 z M 19.625,-8.7109375 c -0.01162,0.04164 -0.03824,0.1149281 -0.111328,0.2304687 -0.146328,0.2312815 -0.437808,0.5570958 -0.853516,0.9296876 -0.831415,0.7451831 -2.155979,1.6876577 -3.849609,2.7363281 -2.103133,1.3022281 -4.779148,2.7746372 -7.8300783,4.29296873 C 6.9932435,-0.34904854 7,-0.175646 7,0 7,0.20125365 6.991337,0.40066067 6.9746094,0.59765625 10.23333,-1.0092335 13.09305,-2.5741285 15.335938,-3.9628906 c 1.722577,-1.0665941 3.079589,-2.0256019 3.990234,-2.8417969 0.316865,-0.2840007 0.580347,-0.5491596 0.789062,-0.8066406 C 19.97247,-7.9887616 19.788046,-8.3440051 19.625,-8.7109375 Z M -6.9746094,-0.59765625 C -10.233329,1.0092335 -13.09305,2.5741285 -15.335938,3.9628906 c -0.590929,0.3658943 -1.138999,0.7194437 -1.640624,1.0585938 0.273188,0.2081686 0.524887,0.4442478 0.75,0.703125 0.436932,-0.2920141 0.909837,-0.5967385 1.416015,-0.9101563 2.103133,-1.3022282 4.779148,-2.7746372 7.8300783,-4.29296873 C -6.9932435,0.34904855 -7,0.17564599 -7,0 c 0,-0.20125361 0.00866,-0.4006607 0.025391,-0.59765625 z M -5.0566406,4.8359375 C -8.2277563,6.0873308 -11.112805,7.0914971 -13.488281,7.7832031 -14.041195,7.9442039 -14.567699,8.0883994 -15.0625,8.2148438 -15.02191,8.4707307 -15,8.7329344 -15,9 c 0,0.078905 -0.0022,0.1583035 -0.0059,0.2363281 0.562993,-0.1409023 1.163774,-0.3053153 1.798828,-0.4902343 2.53362,-0.7377433 5.6122573,-1.8166747 8.988322,-3.1640626 C -4.5171095,5.3559399 -4.7982473,5.1059578 -5.0566406,4.8359375 Z M -18.826172,-9.8632813 c -0.09952,-6.179e-4 -0.196172,9.54e-4 -0.289062,0.00586 -0.183997,0.3563109 -0.325922,0.7359226 -0.490235,1.1035156 0.03923,-0.019416 0.112706,-0.049504 0.246094,-0.072266 0.134894,-0.023007 0.312937,-0.034634 0.525391,-0.033203 0.212453,0.00143 0.458801,0.015113 0.736328,0.044922 1.110104,0.1192372 2.696801,0.4743347 4.609375,1.03125 2.375478,0.6917067 5.2605212,1.6958707 8.4316404,2.9472656 0.2583882,-0.2700232 0.5395341,-0.5200008 0.8378906,-0.7460937 -3.3760628,-1.347387 -6.454704,-2.4263196 -8.988281,-3.1640626 -1.945264,-0.5664339 -3.565359,-0.9318999 -4.78125,-1.0625 -0.303973,-0.03265 -0.582427,-0.053101 -0.837891,-0.054688 z m -1.697265,0.6503907 c -0.01069,0.02006 -0.02176,0.039226 -0.03125,0.060547 -0.01822,0.040918 -0.03299,0.081967 -0.04492,0.1230469 0.0266,-0.06054 0.04906,-0.1233339 0.07617,-0.1835939 z m 0.898437,0.5019531 c -0.163046,0.3669324 -0.34747,0.7221759 -0.490234,1.0996094 0.208715,0.257481 0.472197,0.5226399 0.789062,0.8066406 0.910645,0.816195 2.267657,1.7752028 3.990234,2.8417969 1.963831,1.2159743 4.400698,2.5669168 7.164063,3.9628906 0.3671392,-0.18546998 0.7388588,-0.37174662 1.1171875,-0.55859375 -3.0206095,-1.50545905 -5.6695215,-2.96403065 -7.7558595,-4.25585935 -1.69363,-1.0486704 -3.018194,-1.991145 -3.849609,-2.7363281 -0.415708,-0.3725918 -0.707188,-0.6984061 -0.853516,-0.9296876 -0.07309,-0.1155281 -0.09971,-0.1888228 -0.111328,-0.2304687 z m 26.5996094,8.11328125 c 0.00216,0.0253704 0.00397,0.050726 0.00586,0.0761719 0.024644,-0.0122643 0.049624,-0.0248511 0.074219,-0.0371094 -0.026614,-0.0131441 -0.053411,-0.0259127 -0.080078,-0.0390625 z M 8.171875,0 C 7.8047358,0.18546998 7.4330162,0.37174662 7.0546875,0.55859375 10.075297,2.0640528 12.724209,3.5226244 14.810547,4.8144531 c 0.506178,0.3134178 0.979083,0.6181422 1.416015,0.9101563 0.225113,-0.2588772 0.476812,-0.4949564 0.75,-0.703125 C 16.474937,4.6823343 15.926867,4.3287849 15.335938,3.9628906 13.372107,2.7469163 10.93524,1.3959738 8.171875,0 Z M -6.9804687,0.52148437 c -0.024644,0.0122643 -0.049624,0.0248511 -0.074219,0.0371094 0.026614,0.0131441 0.053411,0.0259127 0.080078,0.0390625 -0.00216,-0.0253704 -0.00397,-0.050726 -0.00586,-0.0761719 z M 5.0566406,4.8359375 C 4.7982524,5.1059607 4.5171065,5.3559383 4.21875,5.5820312 c 3.3760628,1.347387 6.454704,2.4263196 8.988281,3.1640626 0.635054,0.184919 1.235835,0.349332 1.798828,0.4902343 C 15.002222,9.1583035 15,9.0789054 15,9 15,8.7329344 15.02191,8.4707307 15.0625,8.2148438 14.567699,8.0883994 14.041195,7.9442039 13.488281,7.7832031 11.112803,7.0914964 8.2277598,6.0873324 5.0566406,4.8359375 Z M -2.3144531,-17.570312 c -0.1068846,0.601064 -0.2079011,1.251821 -0.3027344,1.947265 -0.3565005,2.614337 -0.6230454,5.8642731 -0.765625,9.4960939 0.3253152,-0.1804077 0.667235,-0.3354745 1.0214844,-0.4628906 0.1464595,-3.4046565 0.4021315,-6.4476633 0.7363281,-8.8984373 0.082388,-0.60418 0.1703696,-1.172697 0.2617188,-1.701172 -0.3321646,-0.09445 -0.6508379,-0.223138 -0.9511719,-0.380859 z m 4.6289062,0 c -0.300334,0.157721 -0.6190073,0.286404 -0.9511719,0.380859 0.091349,0.528475 0.1793306,1.096992 0.2617188,1.701172 0.3341968,2.450776 0.5898687,5.4937783 0.7363281,8.8984373 0.3542481,0.1274164 0.696168,0.2824833 1.0214844,0.4628906 C 3.240233,-9.7587764 2.9736882,-13.008708 2.6171875,-15.623047 2.5223542,-16.318491 2.4213377,-16.969248 2.3144531,-17.570312 Z M -3.3828125,6.1269531 c 0.1425795,3.6318233 0.4091243,6.8817549 0.765625,9.4960939 0.2737467,2.007476 0.5974177,3.636889 0.9726563,4.800781 0.129425,0.401443 0.2632236,0.747211 0.4121093,1.041016 C -0.82453295,21.487866 -0.41368517,21.5 0,21.5 0.41368517,21.5 0.82453295,21.48787 1.2324219,21.46484 1.3813076,21.171039 1.5151062,20.825271 1.6445312,20.423828 2.0197698,19.259936 2.3434408,17.630523 2.6171875,15.623047 2.973688,13.00871 3.2402329,9.7587739 3.3828125,6.1269531 3.0574973,6.3073608 2.7155775,6.4624276 2.3613281,6.5898437 2.2148686,9.9945002 1.9591966,13.037507 1.625,15.488281 1.3558535,17.462022 1.0339978,19.054558 0.69140625,20.117187 0.52011045,20.648502 0.34122221,21.047643 0.18945312,21.275391 0.09199353,21.42164 0.02483219,21.472433 0,21.490234 -0.02482169,21.472433 -0.09197642,21.421641 -0.18945312,21.275391 -0.34122222,21.047643 -0.52011045,20.648503 -0.69140625,20.117187 -1.0339978,19.054558 -1.3558535,17.462022 -1.625,15.488281 -1.9591968,13.037505 -2.2148687,9.9945027 -2.3613281,6.5898437 -2.7155762,6.4624273 -3.0574961,6.3073604 -3.3828125,6.1269531 Z m 3.28125,16.3671879 C -0.06836288,22.497642 -0.03465715,22.5 0,22.5 c -0.03436788,0 -0.06723059,-0.0057 -0.1015625,-0.0059 z M 0,22.5 c 0.03465715,0 0.06836288,-0.0024 0.1015625,-0.0059 C 0.06723059,22.494295 0.03436788,22.5 0,22.5 Z" /></svg>
